<svg width="29" height="29" viewBox="0 0 29 29" fill="none" xmlns="http://www.w3.org/2000/svg">
<g clip-path="url(#clip0)">
<path d="M26.75 12.875C26.75 21.3333 15.875 28.5833 15.875 28.5833C15.875 28.5833 5 21.3333 5 12.875C5 9.99077 6.14576 7.22467 8.18521 5.18521C10.2247 3.14576 12.9908 2 15.875 2C18.7592 2 21.5253 3.14576 23.5648 5.18521C25.6042 7.22467 26.75 9.99077 26.75 12.875Z" stroke="#FFFAEE" stroke-width="2" stroke-linecap="round" stroke-linejoin="round"/>
<path d="M15.625 17.25C17.627 17.25 19.25 15.627 19.25 13.625C19.25 11.623 17.627 10 15.625 10C13.623 10 12 11.623 12 13.625C12 15.627 13.623 17.25 15.625 17.25Z" stroke="#FFFAEE" stroke-width="2" stroke-linecap="round" stroke-linejoin="round"/>
</g>
<defs>
<clipPath id="clip0">
<rect width="29" height="29" fill="white"/>
</clipPath>
</defs>
</svg>
